# xmcd CD database file
#
# Track frame offsets:
#	150
#	10482
#	45702
#	60417
#	86576
#	113137
#	123227
#	149066
#
# Disc length: 2328 seconds
#
# Revision: 0
# Processed by: cddbd v1.5.2PL0 Copyright (c) Steve Scherf et al.
# Submitted via: CDex 1.79
#
DISCID=6b091608
DTITLE=Gerry Mulligan - Live 1960
DYEAR=1900
DGENRE=Jazz
TTITLE0=Bernie's Theme
TTITLE1=Wee Bit of Bopita
TTITLE2=Out of this World
TTITLE3=Lady Charterley's Sister
TTITLE4=My  Funny Valentine
TTITLE5=Everything Happens to me
TTITLE6=Chugging
TTITLE7=Blue Theme
EXTD=
EXTT0=
EXTT1=
EXTT2=
EXTT3=
EXTT4=
EXTT5=
EXTT6=
EXTT7=
PLAYORDER=
